<svg id="evd6y1n0mh181" xmlns="http://www.w3.org/2000/svg" xmlns:xlink="http://www.w3.org/1999/xlink" viewBox="0 0 200 200" shape-rendering="geometricPrecision" text-rendering="geometricPrecision"><style><![CDATA[#evd6y1n0mh186 {animation: evd6y1n0mh186_c_o 3000ms linear infinite normal forwards}@keyframes evd6y1n0mh186_c_o { 0% {opacity: 1} 33.333333% {opacity: 0.400000} 76.666667% {opacity: 1} 100% {opacity: 1} }#evd6y1n0mh188_to {animation: evd6y1n0mh188_to__to 3000ms linear infinite normal forwards}@keyframes evd6y1n0mh188_to__to { 0% {transform: translate(174.500000px,80.500000px);animation-timing-function: cubic-bezier(0.420000,0,0.580000,1)} 33.333333% {transform: translate(165.599809px,89.500000px);animation-timing-function: cubic-bezier(0.420000,0,0.580000,1)} 76.666667% {transform: translate(174.500000px,80.500000px)} 100% {transform: translate(174.500000px,80.500000px)} }#evd6y1n0mh189_to {animation: evd6y1n0mh189_to__to 3000ms linear infinite normal forwards}@keyframes evd6y1n0mh189_to__to { 0% {transform: translate(54.500000px,52.500000px);animation-timing-function: cubic-bezier(0.420000,0,0.580000,1)} 33.333333% {transform: translate(53.652363px,60.976372px);animation-timing-function: cubic-bezier(0.420000,0,0.580000,1)} 76.666667% {transform: translate(54.500000px,52.500000px)} 100% {transform: translate(54.500000px,52.500000px)} }#evd6y1n0mh1810_to {animation: evd6y1n0mh1810_to__to 3000ms linear infinite normal forwards}@keyframes evd6y1n0mh1810_to__to { 0% {transform: translate(122.500000px,26.500000px);animation-timing-function: cubic-bezier(0.420000,0,0.580000,1)} 33.333333% {transform: translate(122px,36.671646px);animation-timing-function: cubic-bezier(0.420000,0,0.580000,1)} 76.666667% {transform: translate(122.500000px,26.500000px)} 100% {transform: translate(122.500000px,26.500000px)} }#evd6y1n0mh1811_to {animation: evd6y1n0mh1811_to__to 3000ms linear infinite normal forwards}@keyframes evd6y1n0mh1811_to__to { 0% {transform: translate(10.500000px,111.500000px);animation-timing-function: cubic-bezier(0.420000,0,0.580000,1)} 33.333333% {transform: translate(31.594927px,108px);animation-timing-function: cubic-bezier(0.420000,0,0.580000,1)} 76.666667% {transform: translate(10.500000px,111.500000px)} 100% {transform: translate(10.500000px,111.500000px)} }#evd6y1n0mh1812_to {animation: evd6y1n0mh1812_to__to 3000ms linear infinite normal forwards}@keyframes evd6y1n0mh1812_to__to { 0% {transform: translate(193.500000px,113.500000px);animation-timing-function: cubic-bezier(0.420000,0,0.580000,1)} 33.333333% {transform: translate(169.599809px,119px);animation-timing-function: cubic-bezier(0.420000,0,0.580000,1)} 76.666667% {transform: translate(193.500000px,113.500000px)} 100% {transform: translate(193.500000px,113.500000px)} }]]></style><defs><linearGradient id="evd6y1n0mh184-fill" x1="0.036831" y1="0.499369" x2="0.919625" y2="0.500553" spreadMethod="pad" gradientUnits="objectBoundingBox"><stop id="evd6y1n0mh184-fill-0" offset="0%" stop-color="rgb(221,221,255)"/><stop id="evd6y1n0mh184-fill-1" offset="100%" stop-color="rgb(246,224,237)"/></linearGradient><linearGradient id="evd6y1n0mh185-fill" x1="0.036831" y1="0.270427" x2="0.919625" y2="0.701402" spreadMethod="pad" gradientUnits="objectBoundingBox"><stop id="evd6y1n0mh185-fill-0" offset="0%" stop-color="rgb(221,221,255)"/><stop id="evd6y1n0mh185-fill-1" offset="100%" stop-color="rgb(246,224,237)"/></linearGradient><linearGradient id="evd6y1n0mh186-fill" x1="0.036831" y1="0.250709" x2="0.919625" y2="0.718702" spreadMethod="pad" gradientUnits="objectBoundingBox"><stop id="evd6y1n0mh186-fill-0" offset="0%" stop-color="rgb(171,171,250)"/><stop id="evd6y1n0mh186-fill-1" offset="100%" stop-color="rgb(246,188,222)"/></linearGradient><linearGradient id="evd6y1n0mh187-fill" x1="0.036831" y1="0.014293" x2="0.919625" y2="0.926107" spreadMethod="pad" gradientUnits="objectBoundingBox"><stop id="evd6y1n0mh187-fill-0" offset="0%" stop-color="rgb(221,221,255)"/><stop id="evd6y1n0mh187-fill-1" offset="100%" stop-color="rgb(246,224,237)"/></linearGradient><linearGradient id="evd6y1n0mh188-fill" x1="0.036831" y1="0.014293" x2="0.919625" y2="0.926107" spreadMethod="pad" gradientUnits="objectBoundingBox"><stop id="evd6y1n0mh188-fill-0" offset="0%" stop-color="rgb(221,221,255)"/><stop id="evd6y1n0mh188-fill-1" offset="100%" stop-color="rgb(246,224,237)"/></linearGradient><linearGradient id="evd6y1n0mh189-fill" x1="0.036831" y1="0.014293" x2="0.919625" y2="0.926107" spreadMethod="pad" gradientUnits="objectBoundingBox"><stop id="evd6y1n0mh189-fill-0" offset="0%" stop-color="rgb(221,221,255)"/><stop id="evd6y1n0mh189-fill-1" offset="100%" stop-color="rgb(246,224,237)"/></linearGradient><linearGradient id="evd6y1n0mh1810-fill" x1="0.036831" y1="0.014293" x2="0.919625" y2="0.926107" spreadMethod="pad" gradientUnits="objectBoundingBox"><stop id="evd6y1n0mh1810-fill-0" offset="0%" stop-color="rgb(221,221,255)"/><stop id="evd6y1n0mh1810-fill-1" offset="100%" stop-color="rgb(246,224,237)"/></linearGradient><linearGradient id="evd6y1n0mh1811-fill" x1="0.036831" y1="0.014293" x2="0.919625" y2="0.926107" spreadMethod="pad" gradientUnits="objectBoundingBox"><stop id="evd6y1n0mh1811-fill-0" offset="0%" stop-color="rgb(221,221,255)"/><stop id="evd6y1n0mh1811-fill-1" offset="100%" stop-color="rgb(246,224,237)"/></linearGradient><linearGradient id="evd6y1n0mh1812-fill" x1="0.036831" y1="0.014293" x2="0.919625" y2="0.926107" spreadMethod="pad" gradientUnits="objectBoundingBox"><stop id="evd6y1n0mh1812-fill-0" offset="0%" stop-color="rgb(221,221,255)"/><stop id="evd6y1n0mh1812-fill-1" offset="100%" stop-color="rgb(246,224,237)"/></linearGradient></defs><g id="evd6y1n0mh182"><g id="evd6y1n0mh183"><path id="evd6y1n0mh184" d="M43.850000,150L151.150000,150C152.171726,150,153,150.895431,153,152C153,153.104569,152.171726,154,151.150000,154L43.850000,154C42.828273,154,42,153.104569,42,152C42,150.895431,42.828273,150,43.850000,150Z" opacity="0.6" fill="url(#evd6y1n0mh184-fill)" stroke="none" stroke-width="1"/><path id="evd6y1n0mh185" d="M79.853244,86.934521L63.239752,116.267854C62.547588,117.489962,63.436804,119,64.848631,119L109.151276,119C110.575959,119,111.463620,117.465107,110.745763,116.242903L97.824158,94.242903L97.743912,94.117609C96.987191,93.031722,95.322139,93.073445,94.635230,94.242825L90.854284,100.677667L83.071012,86.934538C82.365309,85.688495,80.558960,85.688485,79.853244,86.934521ZM81.462123,91.573333L89.216783,105.265129L89.295770,105.392759C90.042281,106.499368,91.726949,106.470203,92.420113,105.290175L96.228748,98.804000L105.937489,115.333333L68.005194,115.333333L81.462123,91.573333Z" opacity="0.5" fill="url(#evd6y1n0mh185-fill)" stroke="none" stroke-width="1"/><path id="evd6y1n0mh186" d="M76.018624,71C73.468549,71,72.180245,71.246784,70.839719,71.957943C69.605509,72.612701,68.625767,73.584570,67.965704,74.808860C67.279953,76.080798,67.022518,77.305339,67.001429,79.623189L67,110.053856C67,112.583437,67.248783,113.861387,67.965704,115.191140C68.625767,116.415430,69.605509,117.387299,70.839719,118.042057C72.180245,118.753217,73.468549,119,76.018624,119L124.981376,119C127.531451,119,128.819755,118.753217,130.160281,118.042057C131.394491,117.387299,132.374233,116.415430,133.034296,115.191140C133.751217,113.861387,134,112.583437,134,110.053856L134,79.946144C134,77.416563,133.751217,76.138613,133.034296,74.808860C132.374233,73.584570,131.394491,72.612701,130.160281,71.957943C128.878038,71.277703,127.643576,71.022337,125.306947,71.001417L76.018624,71ZM75.755326,74.693159L124.981376,74.692308C126.969527,74.692308,127.677322,74.827891,128.404885,75.213869C128.990429,75.524504,129.438839,75.969311,129.751991,76.550148C130.123410,77.239059,130.264831,77.910102,130.276920,79.684962L130.277778,110.053856C130.277778,112.026029,130.141096,112.728135,129.751991,113.449852C129.438839,114.030689,128.990429,114.475496,128.404885,114.786131C127.710393,115.154565,127.033913,115.294849,125.244674,115.306841L76.018624,115.307692C74.030473,115.307692,73.322678,115.172109,72.595115,114.786131C72.009571,114.475496,71.561161,114.030689,71.248009,113.449852C70.876590,112.760941,70.735169,112.089897,70.723080,110.315038L70.722222,79.946144C70.722222,77.973971,70.858904,77.271865,71.248009,76.550148C71.561161,75.969311,72.009571,75.524504,72.595115,75.213869C73.289607,74.845435,73.966087,74.705151,75.755326,74.693159Z" fill="url(#evd6y1n0mh186-fill)" stroke="none" stroke-width="1"/><path id="evd6y1n0mh187" d="M114.500000,82C110.357864,82,107,85.357864,107,89.500000C107,93.642136,110.357864,97,114.500000,97C118.642136,97,122,93.642136,122,89.500000C122,85.357864,118.642136,82,114.500000,82ZM114.500000,85.750000C116.571068,85.750000,118.250000,87.428932,118.250000,89.500000C118.250000,91.571068,116.571068,93.250000,114.500000,93.250000C112.428932,93.250000,110.750000,91.571068,110.750000,89.500000C110.750000,87.428932,112.428932,85.750000,114.500000,85.750000Z" fill="url(#evd6y1n0mh187-fill)" stroke="none" stroke-width="1"/><g id="evd6y1n0mh188_to" transform="translate(174.500000,80.500000)"><path id="evd6y1n0mh188" d="M174.500000,73C175.535533,73,176.375000,73.839466,176.375000,74.875000L176.375000,78.625000L180.125000,78.625000C181.160533,78.625000,182,79.464466,182,80.500000C182,81.535534,181.160533,82.375000,180.125000,82.375000L176.375000,82.375000L176.375000,86.125000C176.375000,87.160534,175.535533,88,174.500000,88C173.464467,88,172.625000,87.160534,172.625000,86.125000L172.625000,82.375000L168.875000,82.375000C167.839467,82.375000,167,81.535534,167,80.500000C167,79.464466,167.839467,78.625000,168.875000,78.625000L172.625000,78.625000L172.625000,74.875000C172.625000,73.839466,173.464467,73,174.500000,73Z" transform="translate(-174.500000,-80.500000)" opacity="0.4" fill="url(#evd6y1n0mh188-fill)" stroke="none" stroke-width="1"/></g><g id="evd6y1n0mh189_to" transform="translate(54.500000,52.500000)"><path id="evd6y1n0mh189" d="M54.500000,47C55.512522,47,56.333333,47.820811,56.333333,48.833333L56.333333,50.666667L58.166667,50.666667C59.179189,50.666667,60,51.487478,60,52.500000C60,53.512522,59.179189,54.333333,58.166667,54.333333L56.333333,54.333333L56.333333,56.166667C56.333333,57.179189,55.512522,58,54.500000,58C53.487478,58,52.666667,57.179189,52.666667,56.166667L52.666667,54.333333L50.833333,54.333333C49.820811,54.333333,49,53.512522,49,52.500000C49,51.487478,49.820811,50.666667,50.833333,50.666667L52.666667,50.666667L52.666667,48.833333C52.666667,47.820811,53.487478,47,54.500000,47Z" transform="translate(-54.500000,-52.500000)" fill="url(#evd6y1n0mh189-fill)" stroke="none" stroke-width="1"/></g><g id="evd6y1n0mh1810_to" transform="translate(122.500000,26.500000)"><path id="evd6y1n0mh1810" d="M122.500000,21C123.512522,21,124.333333,21.820811,124.333333,22.833333L124.333333,24.666667L126.166667,24.666667C127.179189,24.666667,128,25.487478,128,26.500000C128,27.512522,127.179189,28.333333,126.166667,28.333333L124.333333,28.333333L124.333333,30.166667C124.333333,31.179189,123.512522,32,122.500000,32C121.487478,32,120.666667,31.179189,120.666667,30.166667L120.666667,28.333333L118.833333,28.333333C117.820811,28.333333,117,27.512522,117,26.500000C117,25.487478,117.820811,24.666667,118.833333,24.666667L120.666667,24.666667L120.666667,22.833333C120.666667,21.820811,121.487478,21,122.500000,21Z" transform="translate(-122.500000,-26.500000)" fill="url(#evd6y1n0mh1810-fill)" stroke="none" stroke-width="1"/></g><g id="evd6y1n0mh1811_to" transform="translate(10.500000,111.500000)"><path id="evd6y1n0mh1811" d="M10.500000,104C6.357864,104,3,107.357864,3,111.500000C3,115.642136,6.357864,119,10.500000,119C14.642136,119,18,115.642136,18,111.500000C18,107.357864,14.642136,104,10.500000,104ZM10.500000,107.750000C12.571068,107.750000,14.250000,109.428932,14.250000,111.500000C14.250000,113.571068,12.571068,115.250000,10.500000,115.250000C8.428932,115.250000,6.750000,113.571068,6.750000,111.500000C6.750000,109.428932,8.428932,107.750000,10.500000,107.750000Z" transform="translate(-10.500000,-111.500000)" fill="url(#evd6y1n0mh1811-fill)" stroke="none" stroke-width="1"/></g><g id="evd6y1n0mh1812_to" transform="translate(193.500000,113.500000)"><circle id="evd6y1n0mh1812" r="3.500000" transform="translate(0,0)" fill="url(#evd6y1n0mh1812-fill)" stroke="none" stroke-width="1"/></g></g></g></svg>