<?xml version="1.0" encoding="UTF-8"?>
<svg width="200px" height="200px" viewBox="0 0 200 200" version="1.1" xmlns="http://www.w3.org/2000/svg" xmlns:xlink="http://www.w3.org/1999/xlink">
    <title>01</title>
    <defs>
        <linearGradient x1="3.68305593%" y1="49.9369263%" x2="91.9624971%" y2="50.0553341%" id="linearGradient-1">
            <stop stop-color="#DDDDFF" offset="0%"></stop>
            <stop stop-color="#F6E0ED" offset="100%"></stop>
        </linearGradient>
        <linearGradient x1="3.68305593%" y1="25.0708575%" x2="91.9624971%" y2="71.8701531%" id="linearGradient-2">
            <stop stop-color="#DDDDFF" offset="0%"></stop>
            <stop stop-color="#F6E0ED" offset="100%"></stop>
        </linearGradient>
        <linearGradient x1="3.68305593%" y1="27.0427493%" x2="91.9624971%" y2="70.1402269%" id="linearGradient-3">
            <stop stop-color="#DDDDFF" offset="0%"></stop>
            <stop stop-color="#F6E0ED" offset="100%"></stop>
        </linearGradient>
        <linearGradient x1="3.68305593%" y1="1.4292878%" x2="91.9624971%" y2="92.6107281%" id="linearGradient-4">
            <stop stop-color="#DDDDFF" offset="0%"></stop>
            <stop stop-color="#F6E0ED" offset="100%"></stop>
        </linearGradient>
    </defs>
    <g id="页面-1" stroke="none" stroke-width="1" fill="none" fill-rule="evenodd">
        <g id="编组" fill-rule="nonzero">
            <path d="M43.85,150 L151.15,150 C152.171726,150 153,150.895431 153,152 C153,153.104569 152.171726,154 151.15,154 L43.85,154 C42.8282732,154 42,153.104569 42,152 C42,150.895431 42.8282732,150 43.85,150 Z" id="Rectangle-4" fill="url(#linearGradient-1)" opacity="0.600000024"></path>
            <path d="M76.018624,71 C73.4685488,71 72.1802454,71.2467835 70.839719,71.9579431 C69.6055094,72.6127009 68.6257667,73.5845696 67.9657042,74.8088602 C67.2799534,76.0807978 67.0225182,77.3053388 67.0014289,79.6231893 L67,110.053856 C67,112.583437 67.2487829,113.861387 67.9657042,115.19114 C68.6257667,116.41543 69.6055094,117.387299 70.839719,118.042057 C72.1802454,118.753217 73.4685488,119 76.018624,119 L124.981376,119 C127.531451,119 128.819755,118.753217 130.160281,118.042057 C131.394491,117.387299 132.374233,116.41543 133.034296,115.19114 C133.751217,113.861387 134,112.583437 134,110.053856 L134,79.9461436 C134,77.4165627 133.751217,76.1386131 133.034296,74.8088602 C132.374233,73.5845696 131.394491,72.6127009 130.160281,71.9579431 C128.878038,71.2777034 127.643576,71.0223373 125.306947,71.0014174 L76.018624,71 Z M75.7553265,74.6931589 L124.981376,74.6923077 C126.969527,74.6923077 127.677322,74.8278907 128.404885,75.2138688 C128.990429,75.5245042 129.438839,75.9693106 129.751991,76.5501483 C130.12341,77.2390592 130.264831,77.9101025 130.27692,79.6849622 L130.277778,110.053856 C130.277778,112.026029 130.141096,112.728135 129.751991,113.449852 C129.438839,114.030689 128.990429,114.475496 128.404885,114.786131 C127.710393,115.154565 127.033913,115.294849 125.244674,115.306841 L76.018624,115.307692 C74.030473,115.307692 73.3226782,115.172109 72.5951147,114.786131 C72.0095712,114.475496 71.561161,114.030689 71.2480089,113.449852 C70.8765903,112.760941 70.7351693,112.089897 70.7230803,110.315038 L70.7222222,79.9461436 C70.7222222,77.9739709 70.8589037,77.2718645 71.2480089,76.5501483 C71.561161,75.9693106 72.0095712,75.5245042 72.5951147,75.2138688 C73.2896072,74.8454351 73.9660872,74.7051508 75.7553265,74.6931589 Z" id="Rectangle" fill="url(#linearGradient-2)"></path>
            <path d="M79.8532436,86.934521 L63.2397516,116.267854 C62.5475878,117.489962 63.4368044,119 64.8486309,119 L109.151276,119 C110.575959,119 111.46362,117.465107 110.745763,116.242903 L97.8241585,94.2429031 L97.7439122,94.1176087 C96.9871908,93.031722 95.3221386,93.0734451 94.6352303,94.2428246 L90.8542837,100.677667 L83.0710117,86.9345379 C82.3653089,85.6884949 80.5589597,85.6884854 79.8532436,86.934521 Z M81.4621229,91.5733333 L89.2167828,105.265129 L89.2957697,105.392759 C90.0422806,106.499368 91.7269494,106.470203 92.4201126,105.290175 L96.2287484,98.804 L105.937489,115.333333 L68.0051943,115.333333 L81.4621229,91.5733333 Z" id="Path" fill="url(#linearGradient-3)" opacity="0.5"></path>
            <path d="M76.018624,71 C73.4685488,71 72.1802454,71.2467835 70.839719,71.9579431 C69.6055094,72.6127009 68.6257667,73.5845696 67.9657042,74.8088602 C67.2799534,76.0807978 67.0225182,77.3053388 67.0014289,79.6231893 L67,110.053856 C67,112.583437 67.2487829,113.861387 67.9657042,115.19114 C68.6257667,116.41543 69.6055094,117.387299 70.839719,118.042057 C72.1802454,118.753217 73.4685488,119 76.018624,119 L124.981376,119 C127.531451,119 128.819755,118.753217 130.160281,118.042057 C131.394491,117.387299 132.374233,116.41543 133.034296,115.19114 C133.751217,113.861387 134,112.583437 134,110.053856 L134,79.9461436 C134,77.4165627 133.751217,76.1386131 133.034296,74.8088602 C132.374233,73.5845696 131.394491,72.6127009 130.160281,71.9579431 C128.878038,71.2777034 127.643576,71.0223373 125.306947,71.0014174 L76.018624,71 Z M75.7553265,74.6931589 L124.981376,74.6923077 C126.969527,74.6923077 127.677322,74.8278907 128.404885,75.2138688 C128.990429,75.5245042 129.438839,75.9693106 129.751991,76.5501483 C130.12341,77.2390592 130.264831,77.9101025 130.27692,79.6849622 L130.277778,110.053856 C130.277778,112.026029 130.141096,112.728135 129.751991,113.449852 C129.438839,114.030689 128.990429,114.475496 128.404885,114.786131 C127.710393,115.154565 127.033913,115.294849 125.244674,115.306841 L76.018624,115.307692 C74.030473,115.307692 73.3226782,115.172109 72.5951147,114.786131 C72.0095712,114.475496 71.561161,114.030689 71.2480089,113.449852 C70.8765903,112.760941 70.7351693,112.089897 70.7230803,110.315038 L70.7222222,79.9461436 C70.7222222,77.9739709 70.8589037,77.2718645 71.2480089,76.5501483 C71.561161,75.9693106 72.0095712,75.5245042 72.5951147,75.2138688 C73.2896072,74.8454351 73.9660872,74.7051508 75.7553265,74.6931589 Z" id="Rectangle" fill="url(#linearGradient-2)"></path>
            <path d="M114.5,82 C110.357864,82 107,85.3578644 107,89.5 C107,93.6421356 110.357864,97 114.5,97 C118.642136,97 122,93.6421356 122,89.5 C122,85.3578644 118.642136,82 114.5,82 Z M114.5,85.75 C116.571068,85.75 118.25,87.4289322 118.25,89.5 C118.25,91.5710678 116.571068,93.25 114.5,93.25 C112.428932,93.25 110.75,91.5710678 110.75,89.5 C110.75,87.4289322 112.428932,85.75 114.5,85.75 Z" id="Oval-19" fill="url(#linearGradient-4)"></path>
            <path d="M174.5,73 C175.535533,73 176.375,73.8394661 176.375,74.875 L176.375,78.625 L180.125,78.625 C181.160533,78.625 182,79.4644661 182,80.5 C182,81.5355339 181.160533,82.375 180.125,82.375 L176.375,82.375 L176.375,86.125 C176.375,87.1605339 175.535533,88 174.5,88 C173.464467,88 172.625,87.1605339 172.625,86.125 L172.625,82.375 L168.875,82.375 C167.839467,82.375 167,81.5355339 167,80.5 C167,79.4644661 167.839467,78.625 168.875,78.625 L172.625,78.625 L172.625,74.875 C172.625,73.8394661 173.464467,73 174.5,73 Z" id="Rectangle-4" fill="url(#linearGradient-4)" opacity="0.400000006"></path>
            <path d="M54.5,47 C55.512522,47 56.3333333,47.8208113 56.3333333,48.8333333 L56.3333333,50.6666667 L58.1666667,50.6666667 C59.1791887,50.6666667 60,51.487478 60,52.5 C60,53.512522 59.1791887,54.3333333 58.1666667,54.3333333 L56.3333333,54.3333333 L56.3333333,56.1666667 C56.3333333,57.1791887 55.512522,58 54.5,58 C53.487478,58 52.6666667,57.1791887 52.6666667,56.1666667 L52.6666667,54.3333333 L50.8333333,54.3333333 C49.8208113,54.3333333 49,53.512522 49,52.5 C49,51.487478 49.8208113,50.6666667 50.8333333,50.6666667 L52.6666667,50.6666667 L52.6666667,48.8333333 C52.6666667,47.8208113 53.487478,47 54.5,47 Z" id="Rectangle-4" fill="url(#linearGradient-4)"></path>
            <path d="M122.5,21 C123.512522,21 124.333333,21.8208113 124.333333,22.8333333 L124.333333,24.6666667 L126.166667,24.6666667 C127.179189,24.6666667 128,25.487478 128,26.5 C128,27.512522 127.179189,28.3333333 126.166667,28.3333333 L124.333333,28.3333333 L124.333333,30.1666667 C124.333333,31.1791887 123.512522,32 122.5,32 C121.487478,32 120.666667,31.1791887 120.666667,30.1666667 L120.666667,28.3333333 L118.833333,28.3333333 C117.820811,28.3333333 117,27.512522 117,26.5 C117,25.487478 117.820811,24.6666667 118.833333,24.6666667 L120.666667,24.6666667 L120.666667,22.8333333 C120.666667,21.8208113 121.487478,21 122.5,21 Z" id="Rectangle-4备份" fill="url(#linearGradient-4)"></path>
            <path d="M10.5,104 C6.35786438,104 3,107.357864 3,111.5 C3,115.642136 6.35786438,119 10.5,119 C14.6421356,119 18,115.642136 18,111.5 C18,107.357864 14.6421356,104 10.5,104 Z M10.5,107.75 C12.5710678,107.75 14.25,109.428932 14.25,111.5 C14.25,113.571068 12.5710678,115.25 10.5,115.25 C8.42893219,115.25 6.75,113.571068 6.75,111.5 C6.75,109.428932 8.42893219,107.75 10.5,107.75 Z" id="Oval" fill="url(#linearGradient-4)"></path>
            <circle id="Oval-2" fill="url(#linearGradient-4)" cx="193.5" cy="113.5" r="3.5"></circle>
        </g>
    </g>
</svg>