<?xml version="1.0" encoding="UTF-8"?>
<svg width="43px" height="73px" viewBox="0 0 43 73" version="1.1" xmlns="http://www.w3.org/2000/svg" xmlns:xlink="http://www.w3.org/1999/xlink">
    <title>btns</title>
    <defs>
        <circle id="path-1" cx="6.5" cy="6.5" r="6.5"></circle>
        <circle id="path-2" cx="6.5" cy="6.5" r="6.5"></circle>
    </defs>
    <g id="页面-1" stroke="none" stroke-width="1" fill="none" fill-rule="evenodd">
        <g id="btns">
            <g id="actionBtns" stroke-width="0.5">
                <circle id="close" stroke="#F34C43" fill="#FF6058" cx="6.5" cy="6.5" r="6.25"></circle>
                <circle id="min" stroke="#EFAF27" fill="#FFBD30" cx="36.5" cy="6.5" r="6.25"></circle>
            </g>
            <g id="actionBtns_hover" transform="translate(0.000000, 30.000000)">
                <g id="close">
                    <circle id="椭圆形" stroke="#F34C43" stroke-width="0.5" fill="#FF6058" cx="6.5" cy="6.5" r="6.25"></circle>
                    <polygon id="路径" fill="#4D0100" points="9.68198052 4.02512627 7.20781389 6.49929289 9.68198052 8.97487373 8.97487373 9.68198052 6.50070711 7.20639967 4.02512627 9.68198052 3.31801948 8.97487373 5.79360033 6.49929289 3.31801948 4.02512627 4.02512627 3.31801948 6.50070711 5.79218611 8.97487373 3.31801948"></polygon>
                </g>
                <g id="min" transform="translate(30.000000, 0.000000)">
                    <circle id="椭圆形备份" stroke="#EFAF27" stroke-width="0.5" fill="#FFBD30" cx="6.5" cy="6.5" r="6.25"></circle>
                    <rect id="矩形" fill="#000000" opacity="0.400000006" x="2.5" y="6" width="8" height="1"></rect>
                </g>
            </g>
            <g id="actionBtns_hover备份" transform="translate(0.000000, 60.000000)">
                <g id="close">
                    <g id="椭圆形">
                        <use fill="#FF6058" fill-rule="evenodd" xlink:href="#path-1"></use>
                        <circle stroke="#F34C43" stroke-width="0.5" stroke-linejoin="square" fill-opacity="0.3" fill="#040404" fill-rule="evenodd" cx="6.5" cy="6.5" r="6.25"></circle>
                        <circle stroke-opacity="0.3" stroke="#000000" stroke-width="0.5" stroke-linejoin="square" cx="6.5" cy="6.5" r="6.25"></circle>
                    </g>
                    <polygon id="路径" fill="#4D0100" points="9.68198052 4.02512627 7.20781389 6.49929289 9.68198052 8.97487373 8.97487373 9.68198052 6.50070711 7.20639967 4.02512627 9.68198052 3.31801948 8.97487373 5.79360033 6.49929289 3.31801948 4.02512627 4.02512627 3.31801948 6.50070711 5.79218611 8.97487373 3.31801948"></polygon>
                </g>
                <g id="min" transform="translate(30.000000, 0.000000)">
                    <g id="椭圆形备份">
                        <use fill="#FFBD30" fill-rule="evenodd" xlink:href="#path-2"></use>
                        <circle stroke="#EFAF27" stroke-width="0.5" stroke-linejoin="square" fill-opacity="0.3" fill="#040404" fill-rule="evenodd" cx="6.5" cy="6.5" r="6.25"></circle>
                        <circle stroke-opacity="0.3" stroke="#000000" stroke-width="0.5" stroke-linejoin="square" cx="6.5" cy="6.5" r="6.25"></circle>
                    </g>
                    <rect id="矩形" fill="#000000" opacity="0.400000006" x="2.5" y="6" width="8" height="1"></rect>
                </g>
            </g>
        </g>
    </g>
</svg>